<?xml version="1.0" encoding="UTF-8" standalone="no"?>
<!-- Created with Inkscape (http://www.inkscape.org/) -->

<svg
   xmlns:dc="http://purl.org/dc/elements/1.1/"
   xmlns:cc="http://creativecommons.org/ns#"
   xmlns:rdf="http://www.w3.org/1999/02/22-rdf-syntax-ns#"
   xmlns:svg="http://www.w3.org/2000/svg"
   xmlns="http://www.w3.org/2000/svg"
   version="1.1"
   width="300"
   height="300"
   id="svg2">
  <defs
     id="defs4">
    <filter
       color-interpolation-filters="sRGB"
       id="filter3851">
      <feGaussianBlur
         id="feGaussianBlur3853"
         stdDeviation="10.836211" />
    </filter>
    <filter
       color-interpolation-filters="sRGB"
       id="filter3835">
      <feGaussianBlur
         id="feGaussianBlur3837"
         stdDeviation="6.5572549" />
    </filter>
    <filter
       x="-0.10410043"
       y="-0.11220309"
       width="1.2082009"
       height="1.2244062"
       color-interpolation-filters="sRGB"
       id="filter3891">
      <feGaussianBlur
         id="feGaussianBlur3893"
         stdDeviation="11.571626" />
    </filter>
    <filter
       color-interpolation-filters="sRGB"
       id="filter3999">
      <feGaussianBlur
         id="feGaussianBlur4001"
         stdDeviation="6.5662598" />
    </filter>
    <filter
       color-interpolation-filters="sRGB"
       id="filter4003">
      <feGaussianBlur
         id="feGaussianBlur4005"
         stdDeviation="6.5662598" />
    </filter>
  </defs>
  <metadata
     id="metadata7">
    <rdf:RDF>
      <cc:Work
         rdf:about="">
        <dc:format>image/svg+xml</dc:format>
        <dc:type
           rdf:resource="http://purl.org/dc/dcmitype/StillImage" />
        <dc:title></dc:title>
      </cc:Work>
    </rdf:RDF>
  </metadata>
  <g
     transform="translate(0,-752.36218)"
     id="g3855"
     style="display:inline">
    <g
       transform="translate(12.5,9.3749998)"
       id="g3975"
       style="fill:#96ff52;fill-opacity:1;stroke:none;display:inline;filter:url(#filter4003)">
      <path
         d="m 20.664419,1003.5904 c 75.921615,3.8656 162.732441,1.1336 232.837351,0.4925 5.94059,2.7225 22.83507,16.0482 23.73236,18.7707 -82.82719,-5.2023 -155.69383,2.8431 -268.5631671,-1.8707 2.9596281,-6.8987 10.1052781,-16.5517 11.9934561,-17.3925 z"
         id="path3977"
         style="fill:#96ff52;fill-opacity:1;stroke:none" />
      <path
         d="M 7.139691,1007.1473 C 87.917793,922.55538 116.23269,858.94868 169.46288,797.88015 c 1.74191,-11.54738 -0.0775,-22.06854 -0.25026,-27.61252 C 116.76251,834.14501 72.639152,905.19402 9.7006314,978.64077 4.6778608,987.96969 8.4235319,1001.3354 7.139691,1007.1473 z"
         id="path3979"
         style="fill:#96ff52;fill-opacity:1;stroke:none" />
      <path
         d="m 176.84847,799.31823 c 21.14559,67.04793 55.91065,129.09355 78.41489,197.38048 9.28961,3.57669 18.2384,10.21429 24.03021,17.28849 -13.16711,-31.81535 -96.85889,-246.84959 -103.40373,-244.10251 0.85868,6.62338 2.18369,18.22227 0.95875,29.43354 z"
         id="path3981"
         style="fill:#96ff52;fill-opacity:1;stroke:none" />
      <path
         d="m 62.938533,994.24667 c 14.539732,-11.25196 75.105917,-104.42962 90.315077,-106.98109 5.32592,-0.12163 19.19006,-3.28911 20.87007,-0.34505 -16.68756,5.60466 -47.17191,60.99469 -86.935075,106.3344 -6.267501,3.93113 -20.334485,2.26139 -24.250072,0.99174 z"
         id="path3983"
         style="fill:#96ff52;fill-opacity:1;stroke:none" />
      <path
         d="m 203.05335,995.47845 c 5.89283,3.26101 13.54134,0.56469 15.38606,0.0178 -12.18887,-47.59849 -21.3227,-46.79779 -42.45078,-101.72632 -1.65995,0.93316 -7.35014,4.21651 -10.54235,12.29516 19.50756,50.23903 27.13853,56.16584 37.60707,89.41336 z"
         id="path3985"
         style="fill:#96ff52;fill-opacity:1;stroke:none" />
      <path
         d="m 120.3431,966.53273 c 7.76452,19.72216 5.17942,21.29709 11.99154,31.34592 2.82338,4.15035 13.66048,2.53525 16.92776,3.17285 -13.77231,-21.46992 -9.6957,-21.91718 -20.08256,-51.2768 -2.55392,1.70625 -9.27768,8.13469 -8.83674,16.75803 z"
         id="path3987"
         style="fill:#96ff52;fill-opacity:1;stroke:none" />
      <path
         d="m 149.84778,989.00362 c 5.88648,-11.90987 21.40532,-22.19415 27.16833,-37.07123 2.43053,3.2286 7.07986,11.29103 6.59951,15.62966 -5.54493,9.27327 -10.90962,8.0609 -25.1032,31.91428 -2.56909,-3.42904 -7.13092,-5.25346 -8.66464,-10.47271 z"
         id="path3989"
         style="fill:#96ff52;fill-opacity:1;stroke:none" />
    </g>
  </g>
  <g
     transform="translate(0,-752.36218)"
     id="layer2"
     style="display:inline">
    <g
       transform="translate(21.093749,11.71875)"
       id="g3951"
       style="fill:#40c000;fill-opacity:1;stroke:none;display:inline;filter:url(#filter3999)">
      <path
         d="m 20.664419,1003.5904 c 75.921615,3.8656 162.732441,1.1336 232.837351,0.4925 5.94059,2.7225 22.83507,16.0482 23.73236,18.7707 -82.82719,-5.2023 -155.69383,2.8431 -268.5631671,-1.8707 2.9596281,-6.8987 10.1052781,-16.5517 11.9934561,-17.3925 z"
         id="path3953"
         style="fill:#40c000;fill-opacity:1;stroke:none" />
      <path
         d="M 7.139691,1007.1473 C 87.917793,922.55538 116.23269,858.94868 169.46288,797.88015 c 1.74191,-11.54738 -0.0775,-22.06854 -0.25026,-27.61252 C 116.76251,834.14501 72.639152,905.19402 9.7006314,978.64077 4.6778608,987.96969 8.4235319,1001.3354 7.139691,1007.1473 z"
         id="path3955"
         style="fill:#40c000;fill-opacity:1;stroke:none" />
      <path
         d="m 176.84847,799.31823 c 21.14559,67.04793 55.91065,129.09355 78.41489,197.38048 9.28961,3.57669 18.2384,10.21429 24.03021,17.28849 -13.16711,-31.81535 -96.85889,-246.84959 -103.40373,-244.10251 0.85868,6.62338 2.18369,18.22227 0.95875,29.43354 z"
         id="path3957"
         style="fill:#40c000;fill-opacity:1;stroke:none" />
      <path
         d="m 62.938533,994.24667 c 14.539732,-11.25196 75.105917,-104.42962 90.315077,-106.98109 5.32592,-0.12163 19.19006,-3.28911 20.87007,-0.34505 -16.68756,5.60466 -47.17191,60.99469 -86.935075,106.3344 -6.267501,3.93113 -20.334485,2.26139 -24.250072,0.99174 z"
         id="path3959"
         style="fill:#40c000;fill-opacity:1;stroke:none" />
      <path
         d="m 203.05335,995.47845 c 5.89283,3.26101 13.54134,0.56469 15.38606,0.0178 -12.18887,-47.59849 -21.3227,-46.79779 -42.45078,-101.72632 -1.65995,0.93316 -7.35014,4.21651 -10.54235,12.29516 19.50756,50.23903 27.13853,56.16584 37.60707,89.41336 z"
         id="path3961"
         style="fill:#40c000;fill-opacity:1;stroke:none" />
      <path
         d="m 120.3431,966.53273 c 7.76452,19.72216 5.17942,21.29709 11.99154,31.34592 2.82338,4.15035 13.66048,2.53525 16.92776,3.17285 -13.77231,-21.46992 -9.6957,-21.91718 -20.08256,-51.2768 -2.55392,1.70625 -9.27768,8.13469 -8.83674,16.75803 z"
         id="path3963"
         style="fill:#40c000;fill-opacity:1;stroke:none" />
      <path
         d="m 149.84778,989.00362 c 5.88648,-11.90987 21.40532,-22.19415 27.16833,-37.07123 2.43053,3.2286 7.07986,11.29103 6.59951,15.62966 -5.54493,9.27327 -10.90962,8.0609 -25.1032,31.91428 -2.56909,-3.42904 -7.13092,-5.25346 -8.66464,-10.47271 z"
         id="path3965"
         style="fill:#40c000;fill-opacity:1;stroke:none" />
    </g>
  </g>
  <g
     transform="translate(0,-752.36218)"
     id="layer1"
     style="display:inline">
    <g
       transform="translate(-2.3437499,0.78124998)"
       id="g3942">
      <path
         d="m 20.664419,1003.5904 c 75.921615,3.8656 162.732441,1.1336 232.837351,0.4925 5.94059,2.7225 22.83507,16.0482 23.73236,18.7707 -82.82719,-5.2023 -155.69383,2.8431 -268.5631671,-1.8707 2.9596281,-6.8987 10.1052781,-16.5517 11.9934561,-17.3925 z"
         id="path2985"
         style="fill:#000000;fill-opacity:1;stroke:#000000;stroke-width:0.60059923px;stroke-linecap:butt;stroke-linejoin:miter;stroke-opacity:1" />
      <path
         d="M 7.139691,1007.1473 C 87.917793,922.55538 116.23269,858.94868 169.46288,797.88015 c 1.74191,-11.54738 -0.0775,-22.06854 -0.25026,-27.61252 C 116.76251,834.14501 72.639152,905.19402 9.7006314,978.64077 4.6778608,987.96969 8.4235319,1001.3354 7.139691,1007.1473 z"
         id="path2987"
         style="fill:#000000;fill-opacity:1;stroke:#000000;stroke-width:0.60059923px;stroke-linecap:butt;stroke-linejoin:miter;stroke-opacity:1" />
      <path
         d="m 176.84847,799.31823 c 21.14559,67.04793 55.91065,129.09355 78.41489,197.38048 9.28961,3.57669 18.2384,10.21429 24.03021,17.28849 -13.16711,-31.81535 -96.85889,-246.84959 -103.40373,-244.10251 0.85868,6.62338 2.18369,18.22227 0.95875,29.43354 z"
         id="path2989"
         style="fill:#000000;fill-opacity:1;stroke:#000000;stroke-width:0.60059923px;stroke-linecap:butt;stroke-linejoin:miter;stroke-opacity:1" />
      <path
         d="m 62.938533,994.24667 c 14.539732,-11.25196 75.105917,-104.42962 90.315077,-106.98109 5.32592,-0.12163 19.19006,-3.28911 20.87007,-0.34505 -16.68756,5.60466 -47.17191,60.99469 -86.935075,106.3344 -6.267501,3.93113 -20.334485,2.26139 -24.250072,0.99174 z"
         id="path2991"
         style="fill:#000000;fill-opacity:1;stroke:#000000;stroke-width:0.60059923px;stroke-linecap:butt;stroke-linejoin:miter;stroke-opacity:1" />
      <path
         d="m 203.05335,995.47845 c 5.89283,3.26101 13.54134,0.56469 15.38606,0.0178 -12.18887,-47.59849 -21.3227,-46.79779 -42.45078,-101.72632 -1.65995,0.93316 -7.35014,4.21651 -10.54235,12.29516 19.50756,50.23903 27.13853,56.16584 37.60707,89.41336 z"
         id="path2993"
         style="fill:#000000;fill-opacity:1;stroke:#000000;stroke-width:0.60059923px;stroke-linecap:butt;stroke-linejoin:miter;stroke-opacity:1" />
      <path
         d="m 120.3431,966.53273 c 7.76452,19.72216 5.17942,21.29709 11.99154,31.34592 2.82338,4.15035 13.66048,2.53525 16.92776,3.17285 -13.77231,-21.46992 -9.6957,-21.91718 -20.08256,-51.2768 -2.55392,1.70625 -9.27768,8.13469 -8.83674,16.75803 z"
         id="path2995"
         style="fill:#000000;fill-opacity:1;stroke:#000000;stroke-width:0.60059923px;stroke-linecap:butt;stroke-linejoin:miter;stroke-opacity:1" />
      <path
         d="m 149.84778,989.00362 c 5.88648,-11.90987 21.40532,-22.19415 27.16833,-37.07123 2.43053,3.2286 7.07986,11.29103 6.59951,15.62966 -5.54493,9.27327 -10.90962,8.0609 -25.1032,31.91428 -2.56909,-3.42904 -7.13092,-5.25346 -8.66464,-10.47271 z"
         id="path2997"
         style="fill:#000000;fill-opacity:1;stroke:#000000;stroke-width:0.60059923px;stroke-linecap:butt;stroke-linejoin:miter;stroke-opacity:1" />
    </g>
  </g>
</svg>
